<svg xmlns="http://www.w3.org/2000/svg" width="500" height="500" viewBox="0 0 500 500"><path fill="#CE2020" d="M254.091 169.772s-38.27-95.701-148.699-61.591c0 0-19.029 7.814-33.526 26.273-20.482 26.079-35.604 70.674-7.186 120.825 5.381 9.496 11.368 19.087 20.536 27.356 5.581 5.035 13.106 8.135 20.177 14.608l22.878 12.968 26.527 9.627s27.002 3.047 56.865 29.434c14.304 12.638 30.941 27.615 42.428 55.847 0 0 20.956-61.357 91.075-80.308 0 0 97.954-16.381 112.545-100.534 3.549-20.467 2.575-59.355-12.752-75.946 0 0-16.109-52.355-98.546-47.498s-88.843 76.117-92.322 68.939z"/><path fill="#020202" d="M351.174 243.163M214.849 211.75"/></svg>